<?xml version="1.0" standalone="no"?>
<!DOCTYPE svg PUBLIC "-//W3C//DTD SVG 20010904//EN"
 "http://www.w3.org/TR/2001/REC-SVG-20010904/DTD/svg10.dtd">
<svg version="1.0" xmlns="http://www.w3.org/2000/svg"
 width="1142.000000pt" height="330.000000pt" viewBox="0 0 1142.000000 330.000000"
 preserveAspectRatio="xMidYMid meet">

<g transform="translate(0.000000,330.000000) scale(0.100000,-0.100000)"
fill="#000000" stroke="none">
<path d="M1237 2899 c-157 -273 -1037 -1821 -1037 -1825 0 -9 100 4 210 28
315 67 692 225 1054 442 88 53 162 93 164 91 3 -3 76 -130 162 -282 l157 -278
197 -3 c108 -1 196 0 196 3 0 4 -97 173 -215 376 -118 204 -215 373 -215 378
0 4 51 47 113 96 211 168 399 366 491 519 73 121 100 271 63 343 -41 79 -129
113 -289 113 -106 0 -145 -12 -70 -23 50 -6 117 -49 143 -90 42 -67 8 -183
-93 -314 -58 -76 -268 -275 -389 -369 -310 -242 -667 -452 -892 -525 -76 -25
-103 -30 -115 -22 -10 6 -16 17 -14 24 5 19 395 689 402 689 3 -1 45 -65 95
-145 55 -89 94 -141 100 -137 236 144 264 165 253 186 -6 11 -104 181 -218
376 -114 195 -211 364 -217 374 -9 17 -13 15 -36 -25z"/>
<path d="M2710 2010 l0 -670 95 0 95 0 0 270 0 270 58 0 57 0 99 -270 100
-270 103 0 c57 0 102 3 99 8 -7 12 -206 526 -206 533 0 4 12 10 27 14 41 10
79 41 97 79 13 29 16 76 16 303 0 259 -1 270 -22 313 -17 33 -35 51 -68 68
-42 21 -55 22 -297 22 l-253 0 0 -670z m440 500 c13 -20 13 -440 0 -460 -7
-12 -33 -15 -127 -15 l-118 0 -3 235 c-1 129 0 241 3 248 8 21 232 13 245 -8z"/>
<path d="M3637 2018 c-65 -365 -117 -666 -117 -670 0 -9 190 -11 190 -3 0 10
40 260 45 283 5 22 7 23 148 20 l142 -3 25 -150 26 -150 98 -3 c77 -2 97 0 94
10 -3 7 -60 309 -129 670 l-124 658 -141 0 -140 0 -117 -662z m322 130 c32
-183 56 -336 54 -340 -2 -5 -53 -8 -113 -8 -60 0 -111 3 -113 8 -3 4 19 158
49 342 29 184 54 340 54 345 3 24 15 -33 69 -347z"/>
<path d="M4400 2010 l0 -670 95 0 95 0 0 670 0 670 -95 0 -95 0 0 -670z"/>
<path d="M4935 2658 c-2 -13 -54 -304 -115 -648 -60 -344 -112 -635 -115 -648
-6 -23 -5 -23 92 -20 l98 3 24 153 24 152 142 0 143 0 16 -87 c8 -49 20 -118
27 -155 l11 -68 94 0 c67 0 94 3 94 12 0 12 -236 1263 -247 1306 -5 21 -8 22
-144 22 -136 0 -139 0 -144 -22z m208 -505 c32 -186 58 -341 57 -345 0 -5 -52
-8 -115 -8 -85 0 -115 3 -115 13 0 30 105 677 110 677 3 0 32 -152 63 -337z"/>
<path d="M6113 2669 c-43 -12 -90 -62 -103 -107 -16 -60 -13 -1067 4 -1115 17
-45 40 -73 81 -95 41 -23 371 -25 425 -3 50 20 89 59 100 100 11 41 13 185 4
255 l-7 46 -93 0 -94 0 0 -125 c0 -110 -2 -127 -17 -133 -32 -13 -191 -8 -205
6 -20 20 -19 992 1 1015 11 14 32 17 101 17 49 0 95 -3 104 -6 13 -5 16 -27
16 -135 l0 -129 101 0 101 0 -4 153 c-3 140 -5 155 -27 191 -41 66 -78 76
-281 75 -96 0 -189 -5 -207 -10z"/>
<path d="M6851 2032 c-63 -356 -117 -657 -119 -669 -4 -23 -2 -23 91 -23 l95
0 6 28 c3 15 12 72 21 127 8 55 18 112 21 128 l6 27 142 0 142 0 23 -137 c12
-76 25 -146 27 -155 5 -16 18 -18 100 -18 l96 0 -6 28 c-3 15 -60 313 -126
662 -69 359 -126 638 -133 642 -7 4 -70 8 -142 8 l-130 0 -114 -648z m314 148
c30 -179 58 -338 61 -353 l6 -28 -119 3 c-71 2 -118 7 -117 13 7 60 108 694
110 692 2 -2 28 -149 59 -327z"/>
<path d="M7610 2010 l0 -670 95 0 95 0 0 259 0 259 168 4 c187 3 217 13 257
80 19 31 20 51 20 323 0 289 0 290 -24 332 -16 29 -39 50 -66 63 -38 18 -62
20 -293 20 l-252 0 0 -670z m414 510 l26 -10 0 -238 c0 -172 -3 -241 -12 -250
-8 -8 -50 -12 -125 -12 l-113 0 0 260 0 260 99 0 c55 0 111 -4 125 -10z"/>
<path d="M8330 2010 l0 -670 95 0 95 0 0 670 0 670 -95 0 -95 0 0 -670z"/>
<path d="M8640 2605 l0 -74 113 -3 112 -3 3 -592 2 -593 95 0 95 0 0 595 0
595 110 0 110 0 0 75 0 75 -320 0 -320 0 0 -75z"/>
<path d="M9600 2669 c0 -6 -52 -303 -115 -659 -63 -357 -115 -653 -115 -659 0
-7 33 -11 95 -11 52 0 95 2 95 5 0 10 40 260 45 283 5 22 7 23 148 20 l142 -3
25 -150 26 -150 98 -3 c77 -2 97 0 94 10 -3 7 -60 309 -129 670 l-124 658
-142 0 c-100 0 -143 -3 -143 -11z m209 -521 c32 -183 56 -336 54 -340 -2 -5
-53 -8 -113 -8 -60 0 -111 3 -113 8 -3 4 19 158 49 342 29 184 54 340 54 345
3 24 15 -33 69 -347z"/>
<path d="M10250 2010 l0 -670 260 0 260 0 0 75 0 75 -165 0 -165 0 0 595 0
595 -95 0 -95 0 0 -670z"/>
<path d="M1328 829 c-15 -9 -18 -26 -18 -118 0 -90 3 -110 16 -115 26 -10 69
-7 82 6 18 18 15 68 -3 68 -9 0 -15 -9 -15 -25 0 -20 -5 -25 -25 -25 -25 0
-25 0 -25 96 0 93 1 95 23 92 14 -2 23 -11 25 -25 5 -35 32 -29 32 7 0 43 -49
64 -92 39z"/>
<path d="M1650 715 c0 -104 2 -125 15 -125 11 0 15 12 15 51 0 63 18 62 41 -2
9 -24 24 -45 33 -47 20 -4 20 7 -1 60 -12 30 -13 43 -5 46 8 2 12 27 12 67 0
69 -6 75 -77 75 l-33 0 0 -125z m80 50 c0 -41 -2 -45 -25 -45 -23 0 -25 4 -25
45 0 41 2 45 25 45 23 0 25 -4 25 -45z"/>
<path d="M2000 716 l0 -126 50 0 c38 0 50 4 50 15 0 10 -11 15 -35 15 -35 0
-35 0 -35 45 0 43 1 45 30 45 17 0 30 5 30 10 0 6 -13 10 -30 10 -28 0 -30 2
-30 40 0 39 1 40 36 40 54 0 37 24 -19 28 l-47 3 0 -125z"/>
<path d="M2350 837 c0 -2 -9 -52 -20 -112 -24 -130 -24 -135 -6 -135 9 0 16
12 18 28 2 21 9 28 31 30 23 3 28 -1 33 -27 7 -33 34 -43 34 -13 0 9 -10 65
-21 125 -20 100 -23 107 -45 107 -13 0 -24 -1 -24 -3z m27 -155 c-10 -2 -20
-2 -22 0 -2 2 2 30 8 63 l11 60 10 -60 c10 -55 10 -60 -7 -63z"/>
<path d="M2650 826 c0 -7 9 -16 20 -19 18 -5 20 -14 20 -111 0 -88 3 -106 15
-106 12 0 15 19 15 110 0 103 1 110 20 110 11 0 20 7 20 15 0 12 -13 15 -55
15 -40 0 -55 -4 -55 -14z"/>
<path d="M2980 715 c0 -104 2 -125 15 -125 13 0 15 21 15 125 0 104 -2 125
-15 125 -13 0 -15 -21 -15 -125z"/>
<path d="M3250 716 c0 -105 2 -126 15 -126 12 0 15 17 16 88 l0 87 23 -76 c26
-88 32 -99 52 -99 11 0 14 23 14 125 0 104 -2 125 -15 125 -12 0 -15 -16 -16
-82 0 -89 -4 -88 -36 17 -12 40 -24 61 -35 63 -16 3 -18 -8 -18 -122z"/>
<path d="M3618 829 c-15 -8 -18 -25 -18 -113 0 -118 6 -129 67 -124 l38 3 3
63 c3 61 2 62 -23 62 -16 0 -25 -6 -25 -15 0 -8 5 -15 10 -15 6 0 10 -16 10
-36 0 -31 -3 -35 -22 -32 -22 3 -23 8 -26 96 l-3 92 26 0 c18 0 25 -5 25 -20
0 -11 7 -20 15 -20 9 0 15 9 15 25 0 38 -52 58 -92 34z"/>
<path d="M4220 837 c0 -2 -9 -52 -20 -112 -24 -130 -24 -135 -6 -135 9 0 16
12 18 28 2 21 9 28 30 30 22 3 27 -2 33 -27 4 -17 13 -31 21 -31 18 0 18 5 -7
138 -20 106 -23 112 -45 112 -13 0 -24 -1 -24 -3z m39 -134 c1 -17 -5 -23 -19
-23 -16 0 -19 5 -16 23 3 12 8 40 12 62 l7 40 8 -40 c4 -22 8 -50 8 -62z"/>
<path d="M4780 715 l0 -125 49 0 c27 0 53 6 59 13 6 7 11 57 11 115 0 115 -4
122 -78 122 l-41 0 0 -125z m88 53 c3 -36 2 -38 -27 -38 -30 0 -31 2 -31 41 0
38 1 40 28 37 23 -3 27 -8 30 -40z m2 -108 c0 -38 -2 -40 -30 -40 -28 0 -30 2
-30 40 0 38 2 40 30 40 28 0 30 -2 30 -40z"/>
<path d="M5134 827 c-2 -7 -3 -62 -2 -123 l3 -109 49 0 c31 0 51 5 54 13 2 8
-8 12 -32 12 -36 0 -36 0 -36 45 0 41 2 45 25 45 14 0 25 5 25 10 0 6 -11 10
-25 10 -22 0 -25 4 -25 40 0 38 2 40 30 40 20 0 30 5 30 15 0 20 -88 21 -96 2z"/>
<path d="M5440 825 c0 -8 9 -15 20 -15 19 0 20 -7 20 -110 0 -91 3 -110 15
-110 12 0 15 19 15 110 l0 110 26 0 c16 0 24 5 22 13 -3 7 -27 13 -61 15 -46
2 -57 0 -57 -13z"/>
<path d="M5757 833 c-13 -12 -7 -23 13 -23 18 0 20 -8 22 -107 2 -88 6 -108
18 -108 12 0 16 20 18 108 2 99 4 107 22 107 11 0 20 7 20 15 0 11 -13 15 -53
15 -30 0 -57 -3 -60 -7z"/>
<path d="M6085 827 c-3 -7 -4 -62 -3 -123 l3 -109 53 -3 c42 -2 52 0 52 12 0
12 -10 16 -35 16 -35 0 -35 0 -35 45 0 41 2 45 25 45 14 0 25 5 25 10 0 6 -11
10 -25 10 -22 0 -25 4 -25 40 0 39 1 40 36 40 54 0 37 24 -19 28 -33 2 -49 -1
-52 -11z"/>
<path d="M6410 715 c0 -104 2 -125 15 -125 11 0 15 12 15 50 0 34 4 50 13 50
7 0 20 -22 30 -50 10 -29 24 -50 32 -50 19 0 19 7 0 61 -10 28 -12 45 -5 47 5
2 10 32 10 67 0 69 -6 75 -77 75 l-33 0 0 -125z m80 50 c0 -41 -2 -45 -25 -45
-23 0 -25 4 -25 45 0 41 2 45 25 45 23 0 25 -4 25 -45z"/>
<path d="M6990 826 c0 -7 9 -16 20 -19 18 -5 20 -14 20 -111 0 -88 3 -106 15
-106 12 0 15 19 15 110 0 103 1 110 20 110 11 0 20 7 20 15 0 12 -13 15 -55
15 -40 0 -55 -4 -55 -14z"/>
<path d="M7333 833 c-9 -3 -13 -37 -13 -118 0 -122 1 -125 59 -125 45 0 51 15
51 127 0 102 0 104 -26 113 -27 11 -51 12 -71 3z m65 -120 l3 -93 -26 0 -25 0
0 96 c0 93 1 95 23 92 21 -3 22 -8 25 -95z"/>
<path d="M7660 715 c0 -104 2 -125 15 -125 12 0 15 17 16 88 l1 87 16 -57 c21
-77 45 -79 64 -5 l13 52 5 -79 c3 -51 10 -81 18 -84 9 -3 12 26 12 123 0 115
-2 126 -17 123 -13 -2 -24 -24 -37 -77 -22 -81 -23 -81 -51 22 -13 44 -21 57
-36 57 -18 0 -19 -8 -19 -125z"/>
<path d="M8066 824 c-12 -12 -16 -37 -16 -109 0 -106 10 -125 64 -125 50 0 56
13 56 127 0 102 0 104 -26 113 -36 14 -60 12 -78 -6z m72 -111 l3 -93 -26 0
-25 0 0 96 c0 93 1 95 23 92 21 -3 22 -8 25 -95z"/>
<path d="M8400 716 c0 -105 2 -126 15 -126 11 0 15 12 15 50 0 34 4 50 13 50
7 0 21 -22 31 -50 10 -28 24 -50 32 -50 18 0 18 19 0 60 -11 28 -11 37 0 59
16 29 18 89 5 110 -5 7 -32 16 -60 19 l-51 5 0 -127z m80 49 c0 -41 -2 -45
-25 -45 -23 0 -25 4 -25 45 0 41 2 45 25 45 23 0 25 -4 25 -45z"/>
<path d="M8750 715 c0 -104 2 -125 15 -125 11 0 15 12 15 51 0 62 16 62 40 -1
10 -25 25 -46 34 -48 20 -4 20 7 0 58 -13 31 -14 44 -5 53 6 6 11 35 11 64 0
60 -14 73 -74 73 l-36 0 0 -125z m80 50 c0 -41 -2 -45 -25 -45 -23 0 -25 4
-25 45 0 41 2 45 25 45 23 0 25 -4 25 -45z"/>
<path d="M9106 824 c-12 -12 -16 -38 -16 -114 0 -110 6 -120 69 -120 42 0 51
22 51 135 0 93 -1 96 -26 105 -36 14 -60 12 -78 -6z m64 -109 c0 -88 -1 -95
-20 -95 -19 0 -20 7 -20 95 0 88 1 95 20 95 19 0 20 -7 20 -95z"/>
<path d="M9428 835 c-2 -3 4 -53 13 -112 10 -60 18 -114 19 -120 0 -7 11 -13
24 -13 23 0 25 5 37 91 15 102 15 102 32 -8 11 -69 15 -78 34 -81 26 -4 25 -4
48 140 18 118 18 108 1 108 -16 0 -22 -22 -32 -115 -7 -63 -23 -110 -24 -68
-1 62 -24 175 -37 180 -8 3 -16 3 -19 0 -3 -3 -11 -46 -19 -97 -8 -51 -16 -94
-18 -96 -2 -3 -10 37 -16 87 -7 51 -14 96 -17 101 -6 9 -18 11 -26 3z"/>
<path d="M380 715 c0 -13 52 -15 405 -15 353 0 405 2 405 15 0 13 -52 15 -405
15 -353 0 -405 -2 -405 -15z"/>
<path d="M9770 715 c0 -13 52 -15 405 -15 353 0 405 2 405 15 0 13 -52 15
-405 15 -353 0 -405 -2 -405 -15z"/>
</g>
</svg>
